<?xml version="1.0" encoding="UTF-8" standalone="no"?>
<!DOCTYPE svg PUBLIC "-//W3C//DTD SVG 1.1//EN" "http://www.w3.org/Graphics/SVG/1.1/DTD/svg11.dtd">
<!-- Generated by Microsoft Visio, SVG Export GalSync using Entra ID Sync Server.svg Page-1 -->
<svg xmlns="http://www.w3.org/2000/svg" xmlns:xlink="http://www.w3.org/1999/xlink" xmlns:ev="http://www.w3.org/2001/xml-events"
		xmlns:v="http://schemas.microsoft.com/visio/2003/SVGExtensions/" width="5.99723in" height="5.18507in"
		viewBox="0 0 431.8 373.325" xml:space="preserve" color-interpolation-filters="sRGB" class="st33">
	<v:documentProperties v:langID="1033" v:viewMarkup="false"/>

	<style type="text/css">
	<![CDATA[
		.st1 {fill:#9a9a9a;stroke:none;stroke-linecap:round;stroke-linejoin:round;stroke-width:0.24}
		.st2 {fill:#e6e6e6;stroke:none;stroke-linecap:round;stroke-linejoin:round;stroke-width:0.24}
		.st3 {fill:#c0c0c0;stroke:#000000;stroke-linecap:round;stroke-linejoin:round;stroke-width:0.24}
		.st4 {fill:url(#grad8-13);stroke:#000000;stroke-linecap:round;stroke-linejoin:round;stroke-width:0.24}
		.st5 {fill:#c0c0c0;stroke:#000000;stroke-linecap:round;stroke-linejoin:round;stroke-width:0.12}
		.st6 {fill:url(#grad1-23);stroke:none;stroke-linecap:round;stroke-linejoin:round;stroke-width:0.12}
		.st7 {fill:url(#grad1-27);stroke:none;stroke-linecap:round;stroke-linejoin:round;stroke-width:0.24}
		.st8 {fill:url(#grad1-34);stroke:none;stroke-linecap:round;stroke-linejoin:round;stroke-width:0.24}
		.st9 {fill:#9a9a9a;stroke:none;stroke-linecap:round;stroke-linejoin:round;stroke-width:0.75}
		.st10 {fill:url(#grad10-40);stroke:#000000;stroke-linecap:round;stroke-linejoin:round;stroke-width:0.12}
		.st11 {fill:url(#grad10-49);stroke:#000000;stroke-linecap:round;stroke-linejoin:round;stroke-width:0.12}
		.st12 {fill:#dbdac6;stroke:#000000;stroke-linecap:round;stroke-linejoin:round;stroke-width:0.12}
		.st13 {stroke:#00ff00;stroke-linecap:butt;stroke-width:0.24}
		.st14 {fill:url(#grad0-69);stroke:none;stroke-linecap:round;stroke-linejoin:round;stroke-width:0.24}
		.st15 {fill:url(#grad0-73);stroke:none;stroke-linecap:round;stroke-linejoin:round;stroke-width:0.24}
		.st16 {fill:none;stroke:#000000;stroke-linecap:round;stroke-linejoin:round;stroke-width:0.75}
		.st17 {fill:#ffffff;stroke:#000000;stroke-linecap:round;stroke-linejoin:round;stroke-width:0.75;visibility:hidden}
		.st18 {fill:#000000;font-family:Calibri;font-size:1.00001em}
		.st19 {font-size:0.666659em}
		.st20 {fill:url(#grad0-84);stroke:none;stroke-linecap:butt;stroke-width:0.75}
		.st21 {fill:url(#grad0-88);stroke:none;stroke-linecap:butt;stroke-width:0.75}
		.st22 {fill:none;stroke:#000000;stroke-linecap:butt;stroke-width:0.75}
		.st23 {fill:#ffffff;stroke:none;stroke-linecap:butt;stroke-width:7.2}
		.st24 {fill:#ffffff;stroke:#000000;stroke-linecap:round;stroke-linejoin:round;stroke-width:0.75}
		.st25 {fill:#4d1e1a;font-family:Calibri;font-size:0.833336em}
		.st26 {font-size:1em}
		.st27 {marker-end:url(#mrkr13-118);marker-start:url(#mrkr13-116);stroke:#000000;stroke-linecap:round;stroke-linejoin:round;stroke-width:0.75}
		.st28 {fill:#000000;fill-opacity:1;stroke:#000000;stroke-opacity:1;stroke-width:0.22935779816514}
		.st29 {fill:#000000;font-family:Calibri;font-size:0.916672em}
		.st30 {marker-start:url(#mrkr13-116);stroke:#000000;stroke-linecap:round;stroke-linejoin:round;stroke-width:0.75}
		.st31 {fill:#ffffff;stroke:none;stroke-linecap:butt}
		.st32 {font-size:0.727266em}
		.st33 {fill:none;fill-rule:evenodd;font-size:12px;overflow:visible;stroke-linecap:square;stroke-miterlimit:3}
	]]>
	</style>

	<defs id="Patterns_And_Gradients">
		<pattern id="grad8-13" x="0" y="0" width="1" height="1" patternContentUnits="objectBoundingBox">
			<path d="M 0 0 L 1 0 L 1 1 z" style="fill:url(#grad0-14)"/>
			<path d="M 0 0 L 0 1 L 1 1 z" style="fill:url(#grad0-15)"/>
		</pattern>
		<linearGradient id="grad0-14" x1="0" y1="0" x2="1" y2="0" gradientTransform="rotate(270 0.5 0.5)">
			<stop offset="0" stop-color="#e6e6e6" stop-opacity="1"/>
			<stop offset="1" stop-color="#c0c0c0" stop-opacity="1"/>
		</linearGradient>
		<linearGradient id="grad0-15" x1="0" y1="0" x2="1" y2="0" gradientTransform="rotate(180 0.5 0.5)">
			<stop offset="0" stop-color="#e6e6e6" stop-opacity="1"/>
			<stop offset="1" stop-color="#c0c0c0" stop-opacity="1"/>
		</linearGradient>
		<radialGradient id="grad1-23" cx="1" cy="1" r="1.4">
			<stop offset="0" stop-color="#e6e6e6" stop-opacity="1"/>
			<stop offset="1" stop-color="#9a9a9a" stop-opacity="1"/>
		</radialGradient>
		<radialGradient id="grad1-27" cx="1" cy="1" r="1.4">
			<stop offset="0" stop-color="#9a9a9a" stop-opacity="1"/>
			<stop offset="1" stop-color="#e6e6e6" stop-opacity="1"/>
		</radialGradient>
		<radialGradient id="grad1-34" cx="1" cy="1" r="1.4">
			<stop offset="0" stop-color="#00ff00" stop-opacity="1"/>
			<stop offset="1" stop-color="#ffff00" stop-opacity="1"/>
		</radialGradient>
		<pattern id="grad10-40" x="0" y="0" width="1" height="1" patternContentUnits="objectBoundingBox">
			<path d="M 0.5 0.5 L 0 0 L 0 1 z" style="fill:url(#grad0-15)"/>
			<path d="M 0.5 0.5 L 1 0 L 1 1 z" style="fill:url(#grad0-41)"/>
			<path d="M 0.5 0.5 L 0 0 L 1 0 z" style="fill:url(#grad0-14)"/>
			<path d="M 0.5 0.5 L 0 1 L 1 1 z" style="fill:url(#grad0-42)"/>
		</pattern>
		<linearGradient id="grad0-41" x1="0" y1="0" x2="1" y2="0" gradientTransform="rotate(360 0.5 0.5)">
			<stop offset="0" stop-color="#e6e6e6" stop-opacity="1"/>
			<stop offset="1" stop-color="#c0c0c0" stop-opacity="1"/>
		</linearGradient>
		<linearGradient id="grad0-42" x1="0" y1="0" x2="1" y2="0" gradientTransform="rotate(90 0.5 0.5)">
			<stop offset="0" stop-color="#e6e6e6" stop-opacity="1"/>
			<stop offset="1" stop-color="#c0c0c0" stop-opacity="1"/>
		</linearGradient>
		<pattern id="grad10-49" x="0" y="0" width="1" height="1" patternContentUnits="objectBoundingBox">
			<path d="M 0.5 0.5 L 0 0 L 0 1 z" style="fill:url(#grad0-50)"/>
			<path d="M 0.5 0.5 L 1 0 L 1 1 z" style="fill:url(#grad0-51)"/>
			<path d="M 0.5 0.5 L 0 0 L 1 0 z" style="fill:url(#grad0-52)"/>
			<path d="M 0.5 0.5 L 0 1 L 1 1 z" style="fill:url(#grad0-53)"/>
		</pattern>
		<linearGradient id="grad0-50" x1="0" y1="0" x2="1" y2="0" gradientTransform="rotate(180 0.5 0.5)">
			<stop offset="0" stop-color="#e6e6e6" stop-opacity="1"/>
			<stop offset="1" stop-color="#9a9a9a" stop-opacity="1"/>
		</linearGradient>
		<linearGradient id="grad0-51" x1="0" y1="0" x2="1" y2="0" gradientTransform="rotate(360 0.5 0.5)">
			<stop offset="0" stop-color="#e6e6e6" stop-opacity="1"/>
			<stop offset="1" stop-color="#9a9a9a" stop-opacity="1"/>
		</linearGradient>
		<linearGradient id="grad0-52" x1="0" y1="0" x2="1" y2="0" gradientTransform="rotate(270 0.5 0.5)">
			<stop offset="0" stop-color="#e6e6e6" stop-opacity="1"/>
			<stop offset="1" stop-color="#9a9a9a" stop-opacity="1"/>
		</linearGradient>
		<linearGradient id="grad0-53" x1="0" y1="0" x2="1" y2="0" gradientTransform="rotate(90 0.5 0.5)">
			<stop offset="0" stop-color="#e6e6e6" stop-opacity="1"/>
			<stop offset="1" stop-color="#9a9a9a" stop-opacity="1"/>
		</linearGradient>
		<linearGradient id="grad0-69" x1="0" y1="0" x2="1" y2="0" gradientTransform="rotate(0 0.5 0.5)">
			<stop offset="0" stop-color="#666666" stop-opacity="1"/>
			<stop offset="1" stop-color="#c0c0c0" stop-opacity="1"/>
		</linearGradient>
		<linearGradient id="grad0-73" x1="0" y1="0" x2="1" y2="0" gradientTransform="rotate(180 0.5 0.5)">
			<stop offset="0" stop-color="#666666" stop-opacity="1"/>
			<stop offset="1" stop-color="#c0c0c0" stop-opacity="1"/>
		</linearGradient>
		<linearGradient id="grad0-84" x1="0" y1="0" x2="1" y2="0" gradientTransform="rotate(270 0.5 0.5)">
			<stop offset="0" stop-color="#ff5e5e" stop-opacity="1"/>
			<stop offset="1" stop-color="#ffffff" stop-opacity="1"/>
		</linearGradient>
		<linearGradient id="grad0-88" x1="0" y1="0" x2="1" y2="0" gradientTransform="rotate(90 0.5 0.5)">
			<stop offset="0" stop-color="#ffb0b0" stop-opacity="1"/>
			<stop offset="1" stop-color="#ff4040" stop-opacity="1"/>
		</linearGradient>
	</defs>
	<defs id="Markers">
		<g id="lend13">
			<path d="M 3 1 L 0 0 L 3 -1 L 3 1 " style="stroke:none"/>
		</g>
		<marker id="mrkr13-116" class="st28" v:arrowType="13" v:arrowSize="2" v:setback="12.6" refX="12.6" orient="auto"
				markerUnits="strokeWidth" overflow="visible">
			<use xlink:href="#lend13" transform="scale(4.36) "/>
		</marker>
		<marker id="mrkr13-118" class="st28" v:arrowType="13" v:arrowSize="2" v:setback="13.08" refX="-13.08" orient="auto"
				markerUnits="strokeWidth" overflow="visible">
			<use xlink:href="#lend13" transform="scale(-4.36,-4.36) "/>
		</marker>
	</defs>
	<g v:mID="0" v:index="1" v:groupContext="foregroundPage">
		<title>Page-1</title>
		<v:pageProperties v:drawingScale="1" v:pageScale="1" v:drawingUnits="19" v:shadowOffsetX="9" v:shadowOffsetY="-9"/>
		<v:layer v:name="Network" v:index="0"/>
		<v:layer v:name="Connector" v:index="1"/>
		<g id="group1-1" transform="translate(164.763,-28.0037)" v:mID="1" v:groupContext="group" v:layerMember="0">
			<v:custProps>
				<v:cp v:nameU="Manufacturer" v:lbl="Manufacturer" v:type="0" v:sortKey="1" v:invis="false" v:ask="false"
						v:langID="1033" v:val="VT4()"/>
				<v:cp v:nameU="ProductNumber" v:lbl="Product Number" v:type="0" v:sortKey="1" v:invis="false" v:ask="false"
						v:langID="1033" v:val="VT4()"/>
				<v:cp v:nameU="PartNumber" v:lbl="Part Number" v:type="0" v:sortKey="1" v:invis="false" v:ask="false"
						v:langID="1033" v:val="VT4()"/>
				<v:cp v:nameU="ProductDescription" v:lbl="Product Description" v:type="0" v:sortKey="1" v:invis="false"
						v:ask="false" v:langID="1033" v:val="VT4()"/>
				<v:cp v:nameU="AssetNumber" v:lbl="Asset Number" v:type="0" v:sortKey="1" v:invis="false" v:ask="false"
						v:langID="1033" v:val="VT4()"/>
				<v:cp v:nameU="SerialNumber" v:lbl="Serial Number" v:type="0" v:sortKey="1" v:invis="false" v:ask="false"
						v:langID="1033" v:val="VT4()"/>
				<v:cp v:nameU="Location" v:lbl="Location" v:type="0" v:sortKey="1" v:invis="false" v:ask="false" v:langID="1033"
						v:val="VT4()"/>
				<v:cp v:nameU="Building" v:lbl="Building" v:type="0" v:sortKey="1" v:invis="false" v:ask="false" v:langID="1033"
						v:val="VT4()"/>
				<v:cp v:nameU="Room" v:lbl="Room" v:type="0" v:sortKey="1" v:invis="false" v:ask="false" v:langID="1033"
						v:val="VT4()"/>
				<v:cp v:nameU="Department" v:lbl="Department" v:type="0" v:sortKey="1" v:invis="false" v:ask="false"
						v:langID="1033" v:val="VT4()"/>
			</v:custProps>
			<v:userDefs>
				<v:ud v:nameU="visVersion" v:val="VT0(15):26"/>
			</v:userDefs>
			<title>Server</title>
			<g id="shape2-2" v:mID="2" v:groupContext="shape" v:layerMember="0" transform="translate(12.9375,0)">
				<title>Sheet.2</title>
				<path d="M0 373.32 L4.78 368.54 L4.78 367.7 L0 372.48 L0 373.32 Z" class="st1"/>
			</g>
			<g id="shape3-4" v:mID="3" v:groupContext="shape" v:layerMember="0" transform="translate(0,-36)">
				<title>Sheet.3</title>
				<path d="M0 373.32 L4.5 368.82 L18 368.82 L13.5 373.32 L0 373.32 Z" class="st2"/>
			</g>
			<g id="shape4-6" v:mID="4" v:groupContext="shape" v:layerMember="0" transform="translate(13.5,-0.84375)">
				<title>Sheet.4</title>
				<path d="M0 338.17 L4.5 333.67 L4.5 368.82 L0 373.32 L0 338.17 Z" class="st1"/>
			</g>
			<g id="shape5-8" v:mID="5" v:groupContext="shape" v:layerMember="0" transform="translate(-1.59872E-14,-0.84375)">
				<title>Sheet.5</title>
				<rect x="0" y="338.169" width="13.5" height="35.1563" class="st3"/>
			</g>
			<g id="shape6-10" v:mID="6" v:groupContext="shape" v:layerMember="0" transform="translate(1.6875,-12.9375)">
				<title>Sheet.6</title>
				<rect x="0" y="351.95" width="10.125" height="21.375" class="st4"/>
			</g>
			<g id="shape7-16" v:mID="7" v:groupContext="shape" v:layerMember="0" transform="translate(2.89936,-14.8315)">
				<title>Sheet.7</title>
				<path d="M0 371.49 L7.7 371.49 L7.7 373.32 L0 373.32 L0 371.49 ZM0 368.68 L7.7 368.68 L7.7 370.51 L0 370.51 L0 368.68
							 ZM0 365.86 L7.7 365.86 L7.7 367.7 L0 367.7 L0 365.86 ZM0 363.05 L7.7 363.05 L7.7 364.89 L0 364.89 L0
							 363.05 ZM0 359.05 L7.7 359.05 L7.7 362.14 L0 362.14 L0 359.05 ZM0 354.97 L7.7 354.97 L7.7 358.06 L0
							 358.06 L0 354.97 Z" class="st5"/>
			</g>
			<g id="shape8-18" v:mID="8" v:groupContext="shape" v:layerMember="0" transform="translate(0.5625,-5.68434E-14)">
				<title>Sheet.8</title>
				<rect x="0" y="372.481" width="12.375" height="0.84375" class="st1"/>
			</g>
			<g id="shape9-20" v:mID="9" v:groupContext="shape" v:layerMember="0" transform="translate(5.8256,-9.01965)">
				<title>Sheet.9</title>
				<path d="M0 372.4 a0.924403 0.924403 0 0 1 1.84881 0 a0.924403 0.924403 0 1 1 -1.84881 0 Z" class="st6"/>
			</g>
			<g id="shape10-24" v:mID="10" v:groupContext="shape" v:layerMember="0" transform="translate(6.19536,-9.38941)">
				<title>Sheet.10</title>
				<path d="M0 372.77 a0.554642 0.554642 0 0 1 1.10928 0 a0.554642 0.554642 0 1 1 -1.10928 0 Z" class="st7"/>
			</g>
			<g id="shape11-28" v:mID="11" v:groupContext="shape" v:layerMember="0" transform="translate(6.1875,-7.13155)">
				<title>Sheet.11</title>
				<path d="M0 372.76 a0.5625 0.5625 0 0 1 1.125 0 a0.5625 0.5625 0 1 1 -1.125 0 Z" class="st6"/>
			</g>
			<g id="shape12-31" v:mID="12" v:groupContext="shape" v:layerMember="0" transform="translate(6.4125,-7.35655)">
				<title>Sheet.12</title>
				<path d="M0 372.99 a0.3375 0.3375 0 0 1 0.675 0 a0.3375 0.3375 0 1 1 -0.675 0 Z" class="st8"/>
			</g>
			<g id="shape13-35" v:mID="13" v:groupContext="shape" v:layerMember="0" transform="translate(4.78125,-31.3594)">
				<title>Sheet.13</title>
				<rect x="0" y="373.029" width="1.125" height="0.296203" class="st9"/>
			</g>
			<g id="shape14-37" v:mID="14" v:groupContext="shape" v:layerMember="0" transform="translate(3.49176,-32.0365)">
				<title>Sheet.14</title>
				<rect x="0" y="372.732" width="6.51647" height="0.592407" class="st10"/>
			</g>
			<g id="shape15-43" v:mID="15" v:groupContext="shape" v:layerMember="0" transform="translate(4.78125,-31.0781)">
				<title>Sheet.15</title>
				<path d="M1.12 372.9 L0 372.9 a0.5625 0.421875 -180 1 0 1.125 0 Z" class="st7"/>
			</g>
			<g id="shape16-46" v:mID="16" v:groupContext="shape" v:layerMember="0" transform="translate(3.34789,-27.1808)">
				<title>Sheet.16</title>
				<path d="M0 372.39 L1.78 372.39 A5.47976 3.46875 0 0 1 5.33 372.39 L6.52 372.39 L6.52 373.32 L0 373.32 L0 372.39 Z"
						class="st11"/>
			</g>
			<g id="shape17-54" v:mID="17" v:groupContext="shape" v:layerMember="0" transform="translate(3.6441,-27.4621)">
				<title>Sheet.17</title>
				<rect x="0" y="373.044" width="5.92407" height="0.28125" class="st12"/>
			</g>
			<g id="shape18-56" v:mID="18" v:groupContext="shape" v:layerMember="0" transform="translate(3.375,-23.8729)">
				<title>Sheet.18</title>
				<path d="M0 373.15 L0 372.65 L2.16 372.65 A2.50137 1.62126 0 0 1 4.59 372.65 L6.75 372.65 L6.75 373.15 L4.59 373.15
							 A2.83821 1.83958 0 0 1 2.16 373.15 L0 373.15 Z" class="st11"/>
			</g>
			<g id="shape19-59" v:mID="19" v:groupContext="shape" v:layerMember="0" transform="translate(6.75,-23.4684)">
				<title>Sheet.19</title>
				<path d="M2.36 365.52 L3.27 365.52 L3.27 365.07 L2.36 365.07 L2.36 365.52 ZM1.47 365.42 L0.88 365.72 L0.88 365.13
							 L1.47 365.42 ZM0 365.42 L0.59 365.13 L0.59 365.72 L0 365.42 ZM1.9 370.23 L3.09 370.23 L3.09 369.92 L1.9
							 369.92 L1.9 370.23 ZM2.19 373.32 L3.38 373.32 L3.38 373.01 L2.19 373.01 L2.19 373.32 Z" class="st11"/>
			</g>
			<g id="shape20-62" v:mID="20" v:groupContext="shape" v:layerMember="0" transform="translate(3.375,-26.7188)">
				<title>Sheet.20</title>
				<path d="M0.14 368.4 L0.7 368.4" class="st13"/>
				<path d="M0 373.32 L0.56 373.32" class="st13"/>
			</g>
			<g id="shape21-66" v:mID="21" v:groupContext="shape" v:layerMember="0" transform="translate(1.6875,-2.25)">
				<title>Sheet.21</title>
				<path d="M0 373.32 L3.18 373.32 L3.18 372.75 L0 372.75 L0 373.32 ZM0 366.09 L3.18 366.09 L3.18 365.51 L0 365.51 L0
							 366.09 ZM0 367.53 L3.18 367.53 L3.18 366.96 L0 366.96 L0 367.53 ZM0 368.98 L3.18 368.98 L3.18 368.4
							 L0 368.4 L0 368.98 ZM0 370.43 L3.18 370.43 L3.18 369.85 L0 369.85 L0 370.43 ZM0 371.88 L3.18 371.88
							 L3.18 371.3 L0 371.3 L0 371.88 ZM0 364.64 L3.18 364.64 L3.18 364.06 L0 364.06 L0 364.64 Z"
						class="st14"/>
			</g>
			<g id="shape22-70" v:mID="22" v:groupContext="shape" v:layerMember="0" transform="translate(8.62776,-2.11765)">
				<title>Sheet.22</title>
				<path d="M0 373.32 L3.18 373.32 L3.18 372.75 L0 372.75 L0 373.32 ZM0 366.09 L3.18 366.09 L3.18 365.51 L0 365.51 L0
							 366.09 ZM0 367.53 L3.18 367.53 L3.18 366.96 L0 366.96 L0 367.53 ZM0 368.98 L3.18 368.98 L3.18 368.4
							 L0 368.4 L0 368.98 ZM0 370.43 L3.18 370.43 L3.18 369.85 L0 369.85 L0 370.43 ZM0 371.88 L3.18 371.88
							 L3.18 371.3 L0 371.3 L0 371.88 ZM0 364.64 L3.18 364.64 L3.18 364.06 L0 364.06 L0 364.64 Z"
						class="st15"/>
			</g>
			<g id="shape23-74" v:mID="23" v:groupContext="shape" v:layerMember="0">
				<title>Sheet.23</title>
				<path d="M0.56 373.32 L0.56 372.48 L0 372.48 L0 337.32 L4.5 332.82 L18 332.82 L18 367.98 L17.72 368.26 L17.72 368.54
							 L12.94 373.32 L0.56 373.32 Z" class="st16"/>
			</g>
			<g id="shape24-76" v:mID="24" v:groupContext="shape" v:layerMember="0" transform="translate(-17.5799,28.0037)">
				<title>Sheet.24</title>
				<desc>Child 2 Entra ID Sync</desc>
				<v:userDefs>
					<v:ud v:nameU="FillPattern" v:val="VT0(1):26"/>
					<v:ud v:nameU="FillForegnd" v:val="VT0(1):26"/>
					<v:ud v:nameU="FillBkgnd" v:val="VT0(0):26"/>
				</v:userDefs>
				<v:textBlock v:margins="rect(2,2,2,2)"/>
				<v:textRect cx="24.3299" cy="359.323" width="48.66" height="28.0037"/>
				<rect x="0" y="345.321" width="48.6597" height="28.0037" class="st17"/>
				<text x="7.67" y="358.12" class="st18" v:langID="1033"><v:paragraph v:horizAlign="1"/><v:tabList/>Child 2<v:newlineChar/><tspan
							x="2.91" dy="1.35em" class="st19">Entra ID Sync</tspan></text>			</g>
		</g>
		<g id="group25-80" transform="translate(59.9786,-48.1355)" v:mID="25" v:groupContext="group">
			<v:userDefs>
				<v:ud v:nameU="visVersion" v:val="VT0(15):26"/>
			</v:userDefs>
			<title>Domain 3D</title>
			<desc>Child 2 On Premises Active Directory</desc>
			<g id="shape26-81" v:mID="26" v:groupContext="shape">
				<title>Sheet.26</title>
				<path d="M0 373.32 L18 337.32 L36 373.32 L0 373.32 Z" class="st20"/>
			</g>
			<g id="shape27-85" v:mID="27" v:groupContext="shape" transform="translate(18,0)">
				<title>Sheet.27</title>
				<path d="M0 337.32 L27 364.32 L18 373.32 L0 337.32 Z" class="st21"/>
			</g>
			<g id="shape28-89" v:mID="28" v:groupContext="shape">
				<title>Sheet.28</title>
				<path d="M18 337.32 L0 373.32 L36 373.32 L45 364.32 L18 337.32 Z" class="st22"/>
			</g>
			<g id="shape25-91" v:mID="25" v:groupContext="groupContent">
				<v:textBlock v:margins="rect(0,0,0,0)"/>
				<v:textRect cx="18" cy="390.127" width="53.96" height="33.6036"/>
				<rect v:rectContext="textBkgnd" x="-8.07387" y="373.327" width="52.1477" height="33.6" class="st23"/>
				<text x="1.34" y="384.13" class="st18" v:langID="1033"><v:paragraph v:horizAlign="1"/><v:tabList/>Child 2<v:newlineChar/><tspan
							x="-2.34" dy="1.35em" class="st19">On Premises<v:newlineChar/></tspan><tspan x="-8.07" dy="1.2em"
							class="st19">Active Directory</tspan></text>			</g>
		</g>
		<g id="group29-96" transform="translate(356.979,-45.8022)" v:mID="29" v:groupContext="group">
			<v:custProps>
				<v:cp v:nameU="ShapeClass" v:lbl="ShapeClass" v:prompt="" v:type="0" v:format="" v:sortKey="" v:invis="true"
						v:ask="false" v:langID="1033" v:cal="0" v:val="VT4(Location)"/>
				<v:cp v:nameU="ShapeType" v:lbl="ShapeType" v:prompt="" v:type="0" v:format="" v:sortKey="" v:invis="true"
						v:ask="false" v:langID="1033" v:cal="0" v:val="VT4(Cloud)"/>
			</v:custProps>
			<v:userDefs>
				<v:ud v:nameU="visVersion" v:prompt="" v:val="VT0(15):26"/>
				<v:ud v:nameU="ShapeClass" v:prompt="" v:val="VT0(5):26"/>
				<v:ud v:nameU="SolSH" v:prompt="" v:val="VT15({BF0433D9-CD73-4EB5-8390-8653BE590246}):41"/>
				<v:ud v:nameU="visLegendShape" v:prompt="" v:val="VT0(2):26"/>
			</v:userDefs>
			<title>Cloud</title>
			<desc>Child 2 Entra ID Exchange Online</desc>
			<g id="shape30-97" v:mID="30" v:groupContext="shape" transform="translate(0,-15.3606)">
				<title>Sheet.30</title>
				<path d="M62.12 343.29 C61.73 339.89 58.64 337.23 54.84 337.23 C53.76 337.23 52.74 337.46 51.82 337.84 C50.03 334.49
							 46.33 332.05 39.39 332.24 C30.37 332.5 19.69 336.56 17.54 343.77 C14.97 344.26 13.31 345.65 12.32 347.51
							 C11.93 347.47 11.52 347.44 11.1 347.44 C5.16 347.44 0.6 351.78 0.34 357.11 C0 364.02 5.16 366.79 11.1
							 366.79 C11.95 366.79 12.77 366.69 13.56 366.52 C14.8 367.33 16.41 367.82 18.17 367.82 C19.8 367.82 21.31
							 367.4 22.5 366.69 C24.78 370.59 29.49 373.32 34.91 373 C40.61 372.67 44.04 371.46 46.06 369.58 C46.18
							 369.57 46.3 369.57 46.43 369.55 C52.81 368.73 55.61 367.08 56.52 364.36 C56.68 364.36 56.86 364.37 57.03
							 364.37 C65.3 364.37 72 361.95 72 353.49 C72 348.78 67.87 344.81 62.12 343.29 Z" class="st24"/>
			</g>
			<g id="shape29-99" v:mID="29" v:groupContext="groupContent">
				<v:textBlock v:margins="rect(4,4,4,4)"/>
				<v:textRect cx="36" cy="395.327" width="77.65" height="44.0037"/>
				<text x="22.12" y="386.33" class="st25" v:langID="1033"><v:paragraph v:horizAlign="1"/><v:tabList/>Child 2<v:newlineChar/><tspan
							x="19.65" dy="1.2em" class="st26">Entra ID<v:newlineChar/></tspan><tspan x="2.31" dy="1.2em"
							class="st26">Exchange Online</tspan></text>			</g>
		</g>
		<g id="group37-103" transform="translate(262.479,-277.636)" v:mID="37" v:groupContext="group">
			<v:custProps>
				<v:cp v:nameU="ShapeClass" v:lbl="ShapeClass" v:prompt="" v:type="0" v:format="" v:sortKey="" v:invis="true"
						v:ask="false" v:langID="1033" v:cal="0" v:val="VT4(Location)"/>
				<v:cp v:nameU="ShapeType" v:lbl="ShapeType" v:prompt="" v:type="0" v:format="" v:sortKey="" v:invis="true"
						v:ask="false" v:langID="1033" v:cal="0" v:val="VT4(Cloud)"/>
			</v:custProps>
			<v:userDefs>
				<v:ud v:nameU="visVersion" v:prompt="" v:val="VT0(15):26"/>
				<v:ud v:nameU="ShapeClass" v:prompt="" v:val="VT0(5):26"/>
				<v:ud v:nameU="SolSH" v:prompt="" v:val="VT15({BF0433D9-CD73-4EB5-8390-8653BE590246}):41"/>
				<v:ud v:nameU="visLegendShape" v:prompt="" v:val="VT0(2):26"/>
			</v:userDefs>
			<title>Cloud.239</title>
			<desc>Parent Company Entra ID Exchange Online</desc>
			<g id="shape38-104" v:mID="38" v:groupContext="shape" transform="translate(0,-15.3606)">
				<title>Sheet.38</title>
				<path d="M62.12 343.29 C61.73 339.89 58.64 337.23 54.84 337.23 C53.76 337.23 52.74 337.46 51.82 337.84 C50.03 334.49
							 46.33 332.05 39.39 332.24 C30.37 332.5 19.69 336.56 17.54 343.77 C14.97 344.26 13.31 345.65 12.32 347.51
							 C11.93 347.47 11.52 347.44 11.1 347.44 C5.16 347.44 0.6 351.78 0.34 357.11 C0 364.02 5.16 366.79 11.1
							 366.79 C11.95 366.79 12.77 366.69 13.56 366.52 C14.8 367.33 16.41 367.82 18.17 367.82 C19.8 367.82 21.31
							 367.4 22.5 366.69 C24.78 370.59 29.49 373.32 34.91 373 C40.61 372.67 44.04 371.46 46.06 369.58 C46.18
							 369.57 46.3 369.57 46.43 369.55 C52.81 368.73 55.61 367.08 56.52 364.36 C56.68 364.36 56.86 364.37 57.03
							 364.37 C65.3 364.37 72 361.95 72 353.49 C72 348.78 67.87 344.81 62.12 343.29 Z" class="st24"/>
			</g>
			<g id="shape37-106" v:mID="37" v:groupContext="groupContent">
				<v:textBlock v:margins="rect(4,4,4,4)"/>
				<v:textRect cx="36" cy="299.637" width="77.97" height="44.0037"/>
				<text x="2.15" y="290.64" class="st25" v:langID="1033"><v:paragraph v:horizAlign="1"/><v:tabList/>Parent Company<v:newlineChar/><tspan
							x="19.65" dy="1.2em" class="st26">Entra ID<v:newlineChar/></tspan><tspan x="2.31" dy="1.2em"
							class="st26">Exchange Online</tspan></text>			</g>
		</g>
		<g id="shape39-110" v:mID="39" v:groupContext="shape" v:layerMember="1" transform="translate(164.763,-48.7555)">
			<title>Dynamic connector.106</title>
			<desc>LDAP 389/636</desc>
			<v:textBlock v:margins="rect(4,4,4,4)"/>
			<v:textRect cx="-68.5075" cy="354.738" width="73.44" height="21.204"/>
			<path d="M-8.75 369.76 L-9.08 369.62 L-77.7 341.65" class="st27"/>
			<rect v:rectContext="textBkgnd" x="-100.321" y="348.138" width="63.6265" height="13.2003" class="st23"/>
			<text x="-100.32" y="358.04" class="st29" v:langID="1033"><v:paragraph v:horizAlign="1"/><v:tabList/>LDAP 389/636</text>		</g>
		<g id="shape41-121" v:mID="41" v:groupContext="shape" v:layerMember="1" transform="translate(182.187,-68.5037)">
			<title>Dynamic connector.41</title>
			<desc>PowerShell Connector (Connect-ExchangeOnline) Read Groups</desc>
			<v:textBlock v:margins="rect(4,4,4,4)"/>
			<v:textRect cx="62.8545" cy="249.693" width="109.66" height="40.4039"/>
			<path d="M4.05 364.79 L4.2 364.46 L107.49 146.75" class="st30"/>
			<rect v:rectContext="textBkgnd" x="13.2711" y="233.493" width="99.1667" height="32.4001" class="st31"/>
			<text x="13.27" y="243.39" class="st29" v:langID="1033"><v:paragraph v:horizAlign="1"/><v:tabList/>PowerShell Connector<v:newlineChar/><tspan
						x="19.69" dy="1.312em" class="st32">(Connect</tspan><tspan class="st32">-</tspan><tspan class="st32">ExchangeOnline)<v:newlineChar/></tspan><tspan
						x="41.98" dy="1.2em" class="st32">Read Groups</tspan></text>		</g>
		<g id="shape42-132" v:mID="42" v:groupContext="shape" v:layerMember="1" transform="translate(182.763,-47.8222)">
			<title>Dynamic connector.42</title>
			<desc>AzureAD Connector (OOB with EntraID Sync) Syncs on Premise ob...</desc>
			<v:textBlock v:margins="rect(4,4,4,4)"/>
			<v:textRect cx="87.2799" cy="359.217" width="113.94" height="50.0039"/>
			<path d="M9.33 371.82 L9.68 371.76 L164.88 346.67" class="st27"/>
			<rect v:rectContext="textBkgnd" x="35.2179" y="338.217" width="104.124" height="42.0002" class="st23"/>
			<text x="43.24" y="348.12" class="st29" v:langID="1033"><v:paragraph v:horizAlign="1"/><v:tabList/>AzureAD Connector<v:newlineChar/><tspan
						x="47.84" dy="1.312em" class="st32">(OOB with EntraID Sync)<v:newlineChar/></tspan><tspan x="46.48"
						dy="1.2em" class="st32">Syncs on Premise objects<v:newlineChar/><v:paragraph v:horizAlign="1"/></tspan><tspan
						x="35.22" dy="1.2em" class="st32">Syncs Groups from other tenant</tspan></text>		</g>
		<g id="group50-144" transform="translate(82.4786,-171.886)" v:mID="50" v:groupContext="group" v:layerMember="0">
			<v:custProps>
				<v:cp v:nameU="Manufacturer" v:lbl="Manufacturer" v:type="0" v:sortKey="1" v:invis="false" v:ask="false"
						v:langID="1033" v:val="VT4()"/>
				<v:cp v:nameU="ProductNumber" v:lbl="Product Number" v:type="0" v:sortKey="1" v:invis="false" v:ask="false"
						v:langID="1033" v:val="VT4()"/>
				<v:cp v:nameU="PartNumber" v:lbl="Part Number" v:type="0" v:sortKey="1" v:invis="false" v:ask="false"
						v:langID="1033" v:val="VT4()"/>
				<v:cp v:nameU="ProductDescription" v:lbl="Product Description" v:type="0" v:sortKey="1" v:invis="false"
						v:ask="false" v:langID="1033" v:val="VT4()"/>
				<v:cp v:nameU="AssetNumber" v:lbl="Asset Number" v:type="0" v:sortKey="1" v:invis="false" v:ask="false"
						v:langID="1033" v:val="VT4()"/>
				<v:cp v:nameU="SerialNumber" v:lbl="Serial Number" v:type="0" v:sortKey="1" v:invis="false" v:ask="false"
						v:langID="1033" v:val="VT4()"/>
				<v:cp v:nameU="Location" v:lbl="Location" v:type="0" v:sortKey="1" v:invis="false" v:ask="false" v:langID="1033"
						v:val="VT4()"/>
				<v:cp v:nameU="Building" v:lbl="Building" v:type="0" v:sortKey="1" v:invis="false" v:ask="false" v:langID="1033"
						v:val="VT4()"/>
				<v:cp v:nameU="Room" v:lbl="Room" v:type="0" v:sortKey="1" v:invis="false" v:ask="false" v:langID="1033"
						v:val="VT4()"/>
				<v:cp v:nameU="Department" v:lbl="Department" v:type="0" v:sortKey="1" v:invis="false" v:ask="false"
						v:langID="1033" v:val="VT4()"/>
			</v:custProps>
			<v:userDefs>
				<v:ud v:nameU="visVersion" v:val="VT0(15):26"/>
			</v:userDefs>
			<title>Server.134</title>
			<g id="shape51-145" v:mID="51" v:groupContext="shape" v:layerMember="0" transform="translate(12.9375,0)">
				<title>Sheet.51</title>
				<path d="M0 373.32 L4.78 368.54 L4.78 367.7 L0 372.48 L0 373.32 Z" class="st1"/>
			</g>
			<g id="shape52-147" v:mID="52" v:groupContext="shape" v:layerMember="0" transform="translate(0,-36)">
				<title>Sheet.52</title>
				<path d="M0 373.32 L4.5 368.82 L18 368.82 L13.5 373.32 L0 373.32 Z" class="st2"/>
			</g>
			<g id="shape53-149" v:mID="53" v:groupContext="shape" v:layerMember="0" transform="translate(13.5,-0.84375)">
				<title>Sheet.53</title>
				<path d="M0 338.17 L4.5 333.67 L4.5 368.82 L0 373.32 L0 338.17 Z" class="st1"/>
			</g>
			<g id="shape54-151" v:mID="54" v:groupContext="shape" v:layerMember="0" transform="translate(-1.59872E-14,-0.84375)">
				<title>Sheet.54</title>
				<rect x="0" y="338.169" width="13.5" height="35.1563" class="st3"/>
			</g>
			<g id="shape55-153" v:mID="55" v:groupContext="shape" v:layerMember="0" transform="translate(1.6875,-12.9375)">
				<title>Sheet.55</title>
				<rect x="0" y="351.95" width="10.125" height="21.375" class="st4"/>
			</g>
			<g id="shape56-156" v:mID="56" v:groupContext="shape" v:layerMember="0" transform="translate(2.89936,-14.8315)">
				<title>Sheet.56</title>
				<path d="M0 371.49 L7.7 371.49 L7.7 373.32 L0 373.32 L0 371.49 ZM0 368.68 L7.7 368.68 L7.7 370.51 L0 370.51 L0 368.68
							 ZM0 365.86 L7.7 365.86 L7.7 367.7 L0 367.7 L0 365.86 ZM0 363.05 L7.7 363.05 L7.7 364.89 L0 364.89 L0
							 363.05 ZM0 359.05 L7.7 359.05 L7.7 362.14 L0 362.14 L0 359.05 ZM0 354.97 L7.7 354.97 L7.7 358.06 L0
							 358.06 L0 354.97 Z" class="st5"/>
			</g>
			<g id="shape57-158" v:mID="57" v:groupContext="shape" v:layerMember="0" transform="translate(0.5625,-5.68434E-14)">
				<title>Sheet.57</title>
				<rect x="0" y="372.481" width="12.375" height="0.84375" class="st1"/>
			</g>
			<g id="shape58-160" v:mID="58" v:groupContext="shape" v:layerMember="0" transform="translate(5.8256,-9.01965)">
				<title>Sheet.58</title>
				<path d="M0 372.4 a0.924403 0.924403 0 0 1 1.84881 0 a0.924403 0.924403 0 1 1 -1.84881 0 Z" class="st6"/>
			</g>
			<g id="shape59-163" v:mID="59" v:groupContext="shape" v:layerMember="0" transform="translate(6.19536,-9.38941)">
				<title>Sheet.59</title>
				<path d="M0 372.77 a0.554642 0.554642 0 0 1 1.10928 0 a0.554642 0.554642 0 1 1 -1.10928 0 Z" class="st7"/>
			</g>
			<g id="shape60-166" v:mID="60" v:groupContext="shape" v:layerMember="0" transform="translate(6.1875,-7.13155)">
				<title>Sheet.60</title>
				<path d="M0 372.76 a0.5625 0.5625 0 0 1 1.125 0 a0.5625 0.5625 0 1 1 -1.125 0 Z" class="st6"/>
			</g>
			<g id="shape61-169" v:mID="61" v:groupContext="shape" v:layerMember="0" transform="translate(6.4125,-7.35655)">
				<title>Sheet.61</title>
				<path d="M0 372.99 a0.3375 0.3375 0 0 1 0.675 0 a0.3375 0.3375 0 1 1 -0.675 0 Z" class="st8"/>
			</g>
			<g id="shape62-172" v:mID="62" v:groupContext="shape" v:layerMember="0" transform="translate(4.78125,-31.3594)">
				<title>Sheet.62</title>
				<rect x="0" y="373.029" width="1.125" height="0.296203" class="st9"/>
			</g>
			<g id="shape63-174" v:mID="63" v:groupContext="shape" v:layerMember="0" transform="translate(3.49176,-32.0365)">
				<title>Sheet.63</title>
				<rect x="0" y="372.732" width="6.51647" height="0.592407" class="st10"/>
			</g>
			<g id="shape64-177" v:mID="64" v:groupContext="shape" v:layerMember="0" transform="translate(4.78125,-31.0781)">
				<title>Sheet.64</title>
				<path d="M1.12 372.9 L0 372.9 a0.5625 0.421875 -180 1 0 1.125 0 Z" class="st7"/>
			</g>
			<g id="shape65-180" v:mID="65" v:groupContext="shape" v:layerMember="0" transform="translate(3.34789,-27.1808)">
				<title>Sheet.65</title>
				<path d="M0 372.39 L1.78 372.39 A5.47976 3.46875 0 0 1 5.33 372.39 L6.52 372.39 L6.52 373.32 L0 373.32 L0 372.39 Z"
						class="st11"/>
			</g>
			<g id="shape66-183" v:mID="66" v:groupContext="shape" v:layerMember="0" transform="translate(3.6441,-27.4621)">
				<title>Sheet.66</title>
				<rect x="0" y="373.044" width="5.92407" height="0.28125" class="st12"/>
			</g>
			<g id="shape67-185" v:mID="67" v:groupContext="shape" v:layerMember="0" transform="translate(3.375,-23.8729)">
				<title>Sheet.67</title>
				<path d="M0 373.15 L0 372.65 L2.16 372.65 A2.50137 1.62126 0 0 1 4.59 372.65 L6.75 372.65 L6.75 373.15 L4.59 373.15
							 A2.83821 1.83958 0 0 1 2.16 373.15 L0 373.15 Z" class="st11"/>
			</g>
			<g id="shape68-188" v:mID="68" v:groupContext="shape" v:layerMember="0" transform="translate(6.75,-23.4684)">
				<title>Sheet.68</title>
				<path d="M2.36 365.52 L3.27 365.52 L3.27 365.07 L2.36 365.07 L2.36 365.52 ZM1.47 365.42 L0.88 365.72 L0.88 365.13
							 L1.47 365.42 ZM0 365.42 L0.59 365.13 L0.59 365.72 L0 365.42 ZM1.9 370.23 L3.09 370.23 L3.09 369.92 L1.9
							 369.92 L1.9 370.23 ZM2.19 373.32 L3.38 373.32 L3.38 373.01 L2.19 373.01 L2.19 373.32 Z" class="st11"/>
			</g>
			<g id="shape69-191" v:mID="69" v:groupContext="shape" v:layerMember="0" transform="translate(3.375,-26.7188)">
				<title>Sheet.69</title>
				<path d="M0.14 368.4 L0.7 368.4" class="st13"/>
				<path d="M0 373.32 L0.56 373.32" class="st13"/>
			</g>
			<g id="shape70-195" v:mID="70" v:groupContext="shape" v:layerMember="0" transform="translate(1.6875,-2.25)">
				<title>Sheet.70</title>
				<path d="M0 373.32 L3.18 373.32 L3.18 372.75 L0 372.75 L0 373.32 ZM0 366.09 L3.18 366.09 L3.18 365.51 L0 365.51 L0
							 366.09 ZM0 367.53 L3.18 367.53 L3.18 366.96 L0 366.96 L0 367.53 ZM0 368.98 L3.18 368.98 L3.18 368.4
							 L0 368.4 L0 368.98 ZM0 370.43 L3.18 370.43 L3.18 369.85 L0 369.85 L0 370.43 ZM0 371.88 L3.18 371.88
							 L3.18 371.3 L0 371.3 L0 371.88 ZM0 364.64 L3.18 364.64 L3.18 364.06 L0 364.06 L0 364.64 Z"
						class="st14"/>
			</g>
			<g id="shape71-198" v:mID="71" v:groupContext="shape" v:layerMember="0" transform="translate(8.62776,-2.11765)">
				<title>Sheet.71</title>
				<path d="M0 373.32 L3.18 373.32 L3.18 372.75 L0 372.75 L0 373.32 ZM0 366.09 L3.18 366.09 L3.18 365.51 L0 365.51 L0
							 366.09 ZM0 367.53 L3.18 367.53 L3.18 366.96 L0 366.96 L0 367.53 ZM0 368.98 L3.18 368.98 L3.18 368.4
							 L0 368.4 L0 368.98 ZM0 370.43 L3.18 370.43 L3.18 369.85 L0 369.85 L0 370.43 ZM0 371.88 L3.18 371.88
							 L3.18 371.3 L0 371.3 L0 371.88 ZM0 364.64 L3.18 364.64 L3.18 364.06 L0 364.06 L0 364.64 Z"
						class="st15"/>
			</g>
			<g id="shape72-201" v:mID="72" v:groupContext="shape" v:layerMember="0">
				<title>Sheet.72</title>
				<path d="M0.56 373.32 L0.56 372.48 L0 372.48 L0 337.32 L4.5 332.82 L18 332.82 L18 367.98 L17.72 368.26 L17.72 368.54
							 L12.94 373.32 L0.56 373.32 Z" class="st16"/>
			</g>
			<g id="shape73-203" v:mID="73" v:groupContext="shape" v:layerMember="0" transform="translate(-37.2286,28.0037)">
				<title>Sheet.73</title>
				<desc>Parent Company Entra ID Sync</desc>
				<v:userDefs>
					<v:ud v:nameU="FillPattern" v:val="VT0(1):26"/>
					<v:ud v:nameU="FillForegnd" v:val="VT0(1):26"/>
					<v:ud v:nameU="FillBkgnd" v:val="VT0(0):26"/>
				</v:userDefs>
				<v:textBlock v:margins="rect(2,2,2,2)"/>
				<v:textRect cx="43.9786" cy="359.323" width="87.96" height="28.0037"/>
				<rect x="0" y="345.321" width="87.9573" height="28.0037" class="st17"/>
				<text x="3.36" y="358.12" class="st18" v:langID="1033"><v:paragraph v:horizAlign="1"/><v:tabList/>Parent Company<v:newlineChar/><tspan
							x="22.55" dy="1.35em" class="st19">Entra ID Sync</tspan></text>			</g>
		</g>
		<g id="group74-207" transform="translate(23.9786,-286.636)" v:mID="74" v:groupContext="group">
			<v:userDefs>
				<v:ud v:nameU="visVersion" v:val="VT0(15):26"/>
			</v:userDefs>
			<title>Domain 3D.158</title>
			<desc>Parent Company On Premises Active Directory</desc>
			<g id="shape75-208" v:mID="75" v:groupContext="shape">
				<title>Sheet.75</title>
				<path d="M0 373.32 L18 337.32 L36 373.32 L0 373.32 Z" class="st20"/>
			</g>
			<g id="shape76-211" v:mID="76" v:groupContext="shape" transform="translate(18,0)">
				<title>Sheet.76</title>
				<path d="M0 337.32 L27 364.32 L18 373.32 L0 337.32 Z" class="st21"/>
			</g>
			<g id="shape77-214" v:mID="77" v:groupContext="shape">
				<title>Sheet.77</title>
				<path d="M18 337.32 L0 373.32 L36 373.32 L45 364.32 L18 337.32 Z" class="st22"/>
			</g>
			<g id="shape74-216" v:mID="74" v:groupContext="groupContent">
				<v:textBlock v:margins="rect(0,0,0,0)"/>
				<v:textRect cx="18" cy="390.127" width="83.96" height="33.6036"/>
				<rect v:rectContext="textBkgnd" x="-22.6205" y="373.327" width="81.2409" height="33.6" class="st23"/>
				<text x="-22.62" y="384.13" class="st18" v:langID="1033"><v:paragraph v:horizAlign="1"/><v:tabList/>Parent Company<v:newlineChar/><tspan
							x="-2.34" dy="1.35em" class="st19">On Premises<v:newlineChar/></tspan><tspan x="-8.07" dy="1.2em"
							class="st19">Active Directory</tspan></text>			</g>
		</g>
		<g id="shape78-221" v:mID="78" v:groupContext="shape" v:layerMember="1" transform="translate(82.4786,-206.278)">
			<title>Dynamic connector.162</title>
			<desc>LDAP 389/636</desc>
			<v:textBlock v:margins="rect(4,4,4,4)"/>
			<v:textRect cx="-12.5445" cy="333.86" width="73.44" height="21.204"/>
			<path d="M-3.6 364.59 L-3.74 364.25 L-29.35 302.04" class="st27"/>
			<rect v:rectContext="textBkgnd" x="-44.3577" y="327.26" width="63.6265" height="13.2003" class="st23"/>
			<text x="-44.36" y="337.16" class="st29" v:langID="1033"><v:paragraph v:horizAlign="1"/><v:tabList/>LDAP 389/636</text>		</g>
		<g id="shape79-230" v:mID="79" v:groupContext="shape" v:layerMember="1" transform="translate(98.2286,-192.136)">
			<title>Dynamic connector.163</title>
			<desc>AzureAD Connector (OOB with EntraID Sync) Syncs on Premise ob...</desc>
			<v:textBlock v:margins="rect(4,4,4,4)"/>
			<v:textRect cx="96.8901" cy="320.967" width="113.94" height="50.0039"/>
			<path d="M8.31 368.83 L8.63 368.66 L185.15 273.27" class="st27"/>
			<rect v:rectContext="textBkgnd" x="44.8281" y="299.967" width="104.124" height="42.0002" class="st31"/>
			<text x="52.85" y="309.87" class="st29" v:langID="1033"><v:paragraph v:horizAlign="1"/><v:tabList/>AzureAD Connector<v:newlineChar/><tspan
						x="57.45" dy="1.312em" class="st32">(OOB with EntraID Sync)<v:newlineChar/></tspan><tspan x="56.09"
						dy="1.2em" class="st32">Syncs on Premise objects<v:newlineChar/></tspan><tspan x="44.83" dy="1.2em"
						class="st32">Syncs Groups from other tenant</tspan></text>		</g>
		<g id="shape82-242" v:mID="82" v:groupContext="shape" v:layerMember="1" transform="translate(100.479,-185.882)">
			<title>Dynamic connector.166</title>
			<desc>PowerShell Connector (Connect-ExchangeOnline) Read Groups</desc>
			<v:textBlock v:margins="rect(4,4,4,4)"/>
			<v:textRect cx="184.5" cy="439.072" width="109.66" height="40.4039"/>
			<path d="M8.9 376.49 L9.24 376.61 L114.72 414.15 A3 3 0 0 1 120.38 416.16 L270.97 469.75" class="st30"/>
			<rect v:rectContext="textBkgnd" x="134.917" y="422.872" width="99.1667" height="32.4001" class="st23"/>
			<text x="134.92" y="432.77" class="st29" v:langID="1033"><v:paragraph v:horizAlign="1"/><v:tabList/>PowerShell Connector<v:newlineChar/><tspan
						x="141.34" dy="1.312em" class="st32">(Connect</tspan><tspan class="st32">-</tspan><tspan class="st32">ExchangeOnline)<v:newlineChar/></tspan><tspan
						x="163.62" dy="1.2em" class="st32">Read Groups</tspan></text>		</g>
		<g id="shape1000-253" v:mID="1000" v:groupContext="shape" v:layerMember="1" transform="translate(385.486,-100.184)">
			<title>Dynamic connector.1000</title>
			<desc>Entra ID Cross Tenant Sync (Users)</desc>
			<v:textBlock v:margins="rect(4,4,4,4)"/>
			<v:textRect cx="-28.5072" cy="322.998" width="91.38" height="44.0044"/>
			<path d="M-3.57 364.57 L-3.7 364.24 L-79.45 178.41" class="st30"/>
			<rect v:rectContext="textBkgnd" x="-68.9518" y="304.998" width="80.889" height="36.0005" class="st23"/>
			<text x="-46.49" y="314.9" class="st29" v:langID="1033"><v:paragraph v:horizAlign="1"/><v:tabList/>Entra ID <v:newlineChar/><tspan
						x="-68.95" dy="1.2em" class="st26">Cross Tenant Sync<v:newlineChar/></tspan><tspan x="-40.01" dy="1.312em"
						class="st32">(Users)</tspan></text>		</g>
		<g id="shape1001-262" v:mID="1001" v:groupContext="shape" v:layerMember="1" transform="translate(323.375,-302.16)">
			<title>Dynamic connector.1001</title>
			<desc>Entra ID Cross Tenant Sync (Users)</desc>
			<v:textBlock v:margins="rect(4,4,4,4)"/>
			<v:textRect cx="25.4013" cy="426.807" width="91.38" height="44.0044"/>
			<path d="M3.57 382.08 L3.7 382.41 L82.39 575.44" class="st30"/>
			<rect v:rectContext="textBkgnd" x="-15.0432" y="408.807" width="80.889" height="36.0005" class="st23"/>
			<text x="7.42" y="418.71" class="st29" v:langID="1033"><v:paragraph v:horizAlign="1"/><v:tabList/>Entra ID <v:newlineChar/><tspan
						x="-15.04" dy="1.2em" class="st26">Cross Tenant Sync<v:newlineChar/></tspan><tspan x="13.9" dy="1.312em"
						class="st32">(Users)</tspan></text>		</g>
	</g>
</svg>
