<?xml version="1.0" encoding="UTF-8"?>
<!DOCTYPE svg PUBLIC "-//W3C//DTD SVG 1.1//EN" "http://www.w3.org/Graphics/SVG/1.1/DTD/svg11.dtd">
<svg xmlns="http://www.w3.org/2000/svg" version="1.1" width="542px" height="321px" style="shape-rendering:geometricPrecision; text-rendering:geometricPrecision; image-rendering:optimizeQuality; fill-rule:evenodd; clip-rule:evenodd" xmlns:xlink="http://www.w3.org/1999/xlink">
<g><path style="opacity:1" fill="#fefefe" d="M -0.5,-0.5 C 180.167,-0.5 360.833,-0.5 541.5,-0.5C 541.5,106.5 541.5,213.5 541.5,320.5C 360.833,320.5 180.167,320.5 -0.5,320.5C -0.5,213.5 -0.5,106.5 -0.5,-0.5 Z"/></g>
<g><path style="opacity:1" fill="#fdfefe" d="M 286.5,105.5 C 287.257,111.337 288.424,117.003 290,122.5C 281.087,118.427 275.254,111.76 272.5,102.5C 270.949,86.7655 277.616,76.2655 292.5,71C 296.5,70.3333 300.5,70.3333 304.5,71C 305.554,72.3876 305.72,73.8876 305,75.5C 293.27,82.0645 287.103,92.0645 286.5,105.5 Z"/></g>
<g><path style="opacity:1" fill="#36e9e6" d="M 347.5,85.5 C 345.282,86.5978 343.115,86.5978 341,85.5C 340.536,86.0944 340.369,86.7611 340.5,87.5C 331.485,79.6013 321.152,77.4346 309.5,81C 301.312,86.0238 295.979,93.1905 293.5,102.5C 291.5,102.5 289.5,102.5 287.5,102.5C 287.737,103.791 287.404,104.791 286.5,105.5C 287.103,92.0645 293.27,82.0645 305,75.5C 305.72,73.8876 305.554,72.3876 304.5,71C 300.5,70.3333 296.5,70.3333 292.5,71C 277.616,76.2655 270.949,86.7655 272.5,102.5C 270.167,102.5 267.833,102.5 265.5,102.5C 265.265,97.1242 265.598,91.7908 266.5,86.5C 266.566,84.7336 265.732,83.7336 264,83.5C 256.439,87.5884 251.939,93.9217 250.5,102.5C 248.5,102.5 246.5,102.5 244.5,102.5C 244.737,103.791 244.404,104.791 243.5,105.5C 244.569,90.932 251.736,80.5987 265,74.5C 266.944,75.4394 268.611,76.7727 270,78.5C 280.827,65.0025 294.66,60.5025 311.5,65C 312.996,67.2012 313.996,69.7012 314.5,72.5C 327.995,70.6188 338.995,74.9521 347.5,85.5 Z"/></g>
<g><path style="opacity:1" fill="#fcfefe" d="M 340.5,87.5 C 341.74,88.973 342.74,90.6396 343.5,92.5C 343.023,93.4776 342.357,94.3109 341.5,95C 328.387,91.0334 316.72,93.5334 306.5,102.5C 301.331,106.159 298.164,111.159 297,117.5C 294.427,112.871 293.26,107.871 293.5,102.5C 295.979,93.1905 301.312,86.0238 309.5,81C 321.152,77.4346 331.485,79.6013 340.5,87.5 Z"/></g>
<g><path style="opacity:1" fill="#fcfefe" d="M 265.5,102.5 C 268.276,116.215 276.276,125.382 289.5,130C 287.389,130.845 285.389,131.678 283.5,132.5C 279.167,132.5 274.833,132.5 270.5,132.5C 257.072,127.062 250.406,117.062 250.5,102.5C 251.939,93.9217 256.439,87.5884 264,83.5C 265.732,83.7336 266.566,84.7336 266.5,86.5C 265.598,91.7908 265.265,97.1242 265.5,102.5 Z"/></g>
<g><path style="opacity:1" fill="#36d6d7" d="M 347.5,85.5 C 349.142,88.1025 350.808,90.7692 352.5,93.5C 351.167,95.1667 349.833,96.8333 348.5,98.5C 351.488,101.323 354.322,104.323 357,107.5C 361.931,115.09 363.765,123.423 362.5,132.5C 360.167,132.5 357.833,132.5 355.5,132.5C 356.514,112.844 347.181,102.178 327.5,100.5C 323.643,100.898 319.977,101.898 316.5,103.5C 313.375,102.521 310.042,102.187 306.5,102.5C 316.72,93.5334 328.387,91.0334 341.5,95C 342.357,94.3109 343.023,93.4776 343.5,92.5C 342.74,90.6396 341.74,88.973 340.5,87.5C 340.369,86.7611 340.536,86.0944 341,85.5C 343.115,86.5978 345.282,86.5978 347.5,85.5 Z"/></g>
<g><path style="opacity:1" fill="#fcfefe" d="M 355.5,132.5 C 353.682,135.015 351.682,135.015 349.5,132.5C 345.951,125.122 340.285,119.956 332.5,117C 322.757,114.325 313.423,115.159 304.5,119.5C 304.167,119.167 303.833,118.833 303.5,118.5C 306.701,112.372 311.034,107.372 316.5,103.5C 319.977,101.898 323.643,100.898 327.5,100.5C 347.181,102.178 356.514,112.844 355.5,132.5 Z"/></g>
<g><path style="opacity:1" fill="#3dc8cb" d="M 250.5,102.5 C 250.406,117.062 257.072,127.062 270.5,132.5C 266.167,132.5 261.833,132.5 257.5,132.5C 253.043,129.969 249.71,126.302 247.5,121.5C 245.955,120.548 244.288,120.215 242.5,120.5C 242.5,124.833 242.5,129.167 242.5,133.5C 240.283,132.631 237.95,132.298 235.5,132.5C 235.261,126.435 235.761,120.435 237,114.5C 239.381,113.565 241.881,113.232 244.5,113.5C 244.599,110.763 244.265,108.096 243.5,105.5C 244.404,104.791 244.737,103.791 244.5,102.5C 246.5,102.5 248.5,102.5 250.5,102.5 Z"/></g>
<g><path style="opacity:1" fill="#3bc8cb" d="M 265.5,102.5 C 267.833,102.5 270.167,102.5 272.5,102.5C 275.254,111.76 281.087,118.427 290,122.5C 288.424,117.003 287.257,111.337 286.5,105.5C 287.404,104.791 287.737,103.791 287.5,102.5C 289.5,102.5 291.5,102.5 293.5,102.5C 293.26,107.871 294.427,112.871 297,117.5C 298.164,111.159 301.331,106.159 306.5,102.5C 310.042,102.187 313.375,102.521 316.5,103.5C 311.034,107.372 306.701,112.372 303.5,118.5C 303.833,118.833 304.167,119.167 304.5,119.5C 313.423,115.159 322.757,114.325 332.5,117C 340.285,119.956 345.951,125.122 349.5,132.5C 346.941,132.198 344.607,132.532 342.5,133.5C 333.537,122.791 322.537,119.957 309.5,125C 316.622,127.224 322.289,131.391 326.5,137.5C 325.778,137.918 325.278,138.584 325,139.5C 324.667,138.833 324.333,138.167 324,137.5C 323.333,138.833 322.667,138.833 322,137.5C 321.333,140.167 320.667,140.167 320,137.5C 319.536,138.094 319.369,138.761 319.5,139.5C 316.119,136.798 312.452,134.465 308.5,132.5C 307.893,132.624 307.56,132.957 307.5,133.5C 299.586,132.533 291.586,132.199 283.5,132.5C 285.389,131.678 287.389,130.845 289.5,130C 276.276,125.382 268.276,116.215 265.5,102.5 Z"/></g>
<g><path style="opacity:1" fill="#fcfefd" d="M 257.5,132.5 C 260.712,135.942 264.712,138.109 269.5,139C 277.956,140.409 285.956,139.242 293.5,135.5C 293.833,135.833 294.167,136.167 294.5,136.5C 292.738,139.701 290.738,142.701 288.5,145.5C 273.524,158.351 259.524,157.351 246.5,142.5C 244.399,139.873 243.066,136.873 242.5,133.5C 242.5,129.167 242.5,124.833 242.5,120.5C 244.288,120.215 245.955,120.548 247.5,121.5C 249.71,126.302 253.043,129.969 257.5,132.5 Z"/></g>
<g><path style="opacity:1" fill="#fbfdfd" d="M 342.5,133.5 C 344.558,136.697 346.225,140.03 347.5,143.5C 347.577,147.215 347.244,150.881 346.5,154.5C 344.791,161.522 341.125,167.188 335.5,171.5C 333.62,171.771 332.287,171.104 331.5,169.5C 332.292,163.87 332.625,158.203 332.5,152.5C 331.876,146.922 329.876,141.922 326.5,137.5C 322.289,131.391 316.622,127.224 309.5,125C 322.537,119.957 333.537,122.791 342.5,133.5 Z"/></g>
<g><path style="opacity:1" fill="#37c8b5" d="M 257.5,132.5 C 261.833,132.5 266.167,132.5 270.5,132.5C 274.833,132.5 279.167,132.5 283.5,132.5C 291.586,132.199 299.586,132.533 307.5,133.5C 309.921,138.184 311.255,143.184 311.5,148.5C 310.685,147.571 309.852,146.571 309,145.5C 307.51,146.728 306.01,146.728 304.5,145.5C 303.774,142.821 302.941,140.154 302,137.5C 300.656,140.865 298.823,143.865 296.5,146.5C 293.867,146.104 291.2,145.771 288.5,145.5C 290.738,142.701 292.738,139.701 294.5,136.5C 294.167,136.167 293.833,135.833 293.5,135.5C 285.956,139.242 277.956,140.409 269.5,139C 264.712,138.109 260.712,135.942 257.5,132.5 Z"/></g>
<g><path style="opacity:1" fill="#fcfefd" d="M 319.5,139.5 C 324.436,145.564 326.436,152.564 325.5,160.5C 325.44,163.341 324.774,166.007 323.5,168.5C 321.659,172.183 319.326,175.516 316.5,178.5C 309.358,183.619 301.358,185.619 292.5,184.5C 292.5,182.833 292.5,181.167 292.5,179.5C 298.448,176.552 303.115,172.219 306.5,166.5C 310.168,161.15 311.835,155.15 311.5,148.5C 311.255,143.184 309.921,138.184 307.5,133.5C 307.56,132.957 307.893,132.624 308.5,132.5C 312.452,134.465 316.119,136.798 319.5,139.5 Z"/></g>
<g><path style="opacity:1" fill="#fcfefd" d="M 304.5,145.5 C 304.632,152.868 302.632,159.535 298.5,165.5C 288.094,176.612 276.094,178.445 262.5,171C 259.629,168.297 256.962,165.464 254.5,162.5C 256.113,159.04 258.446,158.54 261.5,161C 270.415,162.51 278.748,161.01 286.5,156.5C 290.833,154.167 294.167,150.833 296.5,146.5C 298.823,143.865 300.656,140.865 302,137.5C 302.941,140.154 303.774,142.821 304.5,145.5 Z"/></g>
<g><path style="opacity:1" fill="#38cab4" d="M 235.5,132.5 C 237.95,132.298 240.283,132.631 242.5,133.5C 243.066,136.873 244.399,139.873 246.5,142.5C 243.941,142.198 241.607,142.532 239.5,143.5C 237,140.34 235.667,136.673 235.5,132.5 Z"/></g>
<g><path style="opacity:1" fill="#35c9b3" d="M 349.5,132.5 C 351.682,135.015 353.682,135.015 355.5,132.5C 357.833,132.5 360.167,132.5 362.5,132.5C 362.067,135.166 361.567,137.832 361,140.5C 358.393,141.123 355.893,141.79 353.5,142.5C 351.265,142.205 349.265,142.539 347.5,143.5C 346.225,140.03 344.558,136.697 342.5,133.5C 344.607,132.532 346.941,132.198 349.5,132.5 Z"/></g>
<g><path style="opacity:1" fill="#39cfa8" d="M 326.5,137.5 C 329.876,141.922 331.876,146.922 332.5,152.5C 330.5,152.5 328.5,152.5 326.5,152.5C 326.806,155.385 326.473,158.052 325.5,160.5C 326.436,152.564 324.436,145.564 319.5,139.5C 319.369,138.761 319.536,138.094 320,137.5C 320.667,140.167 321.333,140.167 322,137.5C 322.667,138.833 323.333,138.833 324,137.5C 324.333,138.167 324.667,138.833 325,139.5C 325.278,138.584 325.778,137.918 326.5,137.5 Z"/></g>
<g><path style="opacity:1" fill="#38d1a1" d="M 353.5,142.5 C 354.628,145.885 354.628,149.219 353.5,152.5C 350.789,152.185 348.456,152.852 346.5,154.5C 347.244,150.881 347.577,147.215 347.5,143.5C 349.265,142.539 351.265,142.205 353.5,142.5 Z"/></g>
<g><path style="opacity:1" fill="#36d39b" d="M 246.5,142.5 C 259.524,157.351 273.524,158.351 288.5,145.5C 291.2,145.771 293.867,146.104 296.5,146.5C 294.167,150.833 290.833,154.167 286.5,156.5C 280.676,155.834 274.676,155.5 268.5,155.5C 261.927,155.542 255.594,156.208 249.5,157.5C 247.275,153.765 244.442,150.432 241,147.5C 240.209,146.255 239.709,144.922 239.5,143.5C 241.607,142.532 243.941,142.198 246.5,142.5 Z"/></g>
<g><path style="opacity:1" fill="#2fd78e" d="M 286.5,156.5 C 278.748,161.01 270.415,162.51 261.5,161C 258.446,158.54 256.113,159.04 254.5,162.5C 251.941,162.198 249.607,162.532 247.5,163.5C 245.984,160.92 246.651,158.92 249.5,157.5C 255.594,156.208 261.927,155.542 268.5,155.5C 274.676,155.5 280.676,155.834 286.5,156.5 Z"/></g>
<g><path style="opacity:1" fill="#3bd891" d="M 304.5,145.5 C 306.01,146.728 307.51,146.728 309,145.5C 309.852,146.571 310.685,147.571 311.5,148.5C 311.835,155.15 310.168,161.15 306.5,166.5C 304.052,165.527 301.385,165.194 298.5,165.5C 302.632,159.535 304.632,152.868 304.5,145.5 Z"/></g>
<g><path style="opacity:1" fill="#2bd886" d="M 332.5,152.5 C 332.625,158.203 332.292,163.87 331.5,169.5C 328.946,168.612 326.279,168.279 323.5,168.5C 324.774,166.007 325.44,163.341 325.5,160.5C 326.473,158.052 326.806,155.385 326.5,152.5C 328.5,152.5 330.5,152.5 332.5,152.5 Z"/></g>
<g><path style="opacity:1" fill="#3adc84" d="M 353.5,152.5 C 353.723,160.714 350.723,167.381 344.5,172.5C 341.713,171.523 338.713,171.19 335.5,171.5C 341.125,167.188 344.791,161.522 346.5,154.5C 348.456,152.852 350.789,152.185 353.5,152.5 Z"/></g>
<g><path style="opacity:1" fill="#30e172" d="M 323.5,168.5 C 326.279,168.279 328.946,168.612 331.5,169.5C 332.287,171.104 333.62,171.771 335.5,171.5C 338.713,171.19 341.713,171.523 344.5,172.5C 341.328,176.012 337.494,178.679 333,180.5C 331.056,179.561 329.389,178.227 328,176.5C 327.292,177.381 326.458,178.047 325.5,178.5C 324.626,177.475 323.459,176.808 322,176.5C 320.2,177.32 318.366,177.986 316.5,178.5C 319.326,175.516 321.659,172.183 323.5,168.5 Z"/></g>
<g><path style="opacity:1" fill="#33e175" d="M 254.5,162.5 C 256.962,165.464 259.629,168.297 262.5,171C 276.094,178.445 288.094,176.612 298.5,165.5C 301.385,165.194 304.052,165.527 306.5,166.5C 303.115,172.219 298.448,176.552 292.5,179.5C 292.144,178.13 291.31,177.13 290,176.5C 280.667,176.5 271.333,176.5 262,176.5C 261.5,176.667 261,176.833 260.5,177C 261.756,177.417 262.423,178.25 262.5,179.5C 255.419,176.086 250.419,170.753 247.5,163.5C 249.607,162.532 251.941,162.198 254.5,162.5 Z"/></g>
<g><path style="opacity:1" fill="#26e75b" d="M 292.5,179.5 C 292.5,181.167 292.5,182.833 292.5,184.5C 301.358,185.619 309.358,183.619 316.5,178.5C 318.366,177.986 320.2,177.32 322,176.5C 323.459,176.808 324.626,177.475 325.5,178.5C 318.773,187.362 309.773,191.696 298.5,191.5C 294.036,191.54 289.703,190.873 285.5,189.5C 285.5,187.167 285.5,184.833 285.5,182.5C 277.544,183.195 269.877,182.195 262.5,179.5C 262.423,178.25 261.756,177.417 260.5,177C 261,176.833 261.5,176.667 262,176.5C 271.333,176.5 280.667,176.5 290,176.5C 291.31,177.13 292.144,178.13 292.5,179.5 Z"/></g>
<g><path style="opacity:1" fill="#0f0c1c" d="M 339.5,206.5 C 347.788,205.985 355.122,208.318 361.5,213.5C 359.833,215.833 357.833,217.833 355.5,219.5C 350.712,215.911 345.379,214.744 339.5,216C 333.254,219.822 332.921,224.155 338.5,229C 347.363,230.849 355.197,234.682 362,240.5C 365.574,247.075 365.241,253.408 361,259.5C 354.861,265.064 347.694,266.897 339.5,265C 334.888,263.361 330.554,261.194 326.5,258.5C 328.167,256.167 330.167,254.167 332.5,252.5C 339.502,257.319 346.668,257.652 354,253.5C 355.183,249.726 354.349,246.559 351.5,244C 345.678,241.837 339.844,239.67 334,237.5C 322.667,229.682 321.501,220.516 330.5,210C 333.459,208.396 336.459,207.229 339.5,206.5 Z"/></g>
<g><path style="opacity:1" fill="#89878e" d="M 117.5,207.5 C 117.5,207.833 117.5,208.167 117.5,208.5C 114.5,208.5 111.5,208.5 108.5,208.5C 108.5,227.167 108.5,245.833 108.5,264.5C 107.503,245.674 107.17,226.674 107.5,207.5C 110.833,207.5 114.167,207.5 117.5,207.5 Z"/></g>
<g><path style="opacity:1" fill="#0a0619" d="M 141.5,207.5 C 144.5,207.5 147.5,207.5 150.5,207.5C 150.5,226.5 150.5,245.5 150.5,264.5C 147.5,264.5 144.5,264.5 141.5,264.5C 141.5,256.5 141.5,248.5 141.5,240.5C 133.5,240.5 125.5,240.5 117.5,240.5C 117.5,248.5 117.5,256.5 117.5,264.5C 114.5,264.5 111.5,264.5 108.5,264.5C 108.5,245.833 108.5,227.167 108.5,208.5C 111.5,208.5 114.5,208.5 117.5,208.5C 117.5,216.167 117.5,223.833 117.5,231.5C 125.5,231.5 133.5,231.5 141.5,231.5C 141.5,223.5 141.5,215.5 141.5,207.5 Z"/></g>
<g><path style="opacity:1" fill="#87858d" d="M 165.5,225.5 C 162.064,224.218 158.731,224.218 155.5,225.5C 154.957,225.44 154.624,225.107 154.5,224.5C 156.333,224.167 158.167,223.833 160,223.5C 162.295,223.547 164.129,224.213 165.5,225.5 Z"/></g>
<g><path style="opacity:1" fill="#908f95" d="M 192.5,224.5 C 195.687,223.194 199.02,223.194 202.5,224.5C 202.376,225.107 202.043,225.44 201.5,225.5C 198.713,224.523 195.713,224.19 192.5,224.5 Z"/></g>
<g><path style="opacity:1" fill="#100e1d" d="M 221.5,223.5 C 241.814,222.307 250.314,231.641 247,251.5C 241.431,263.87 232.264,267.87 219.5,263.5C 220.695,261.249 221.695,258.915 222.5,256.5C 234.625,256.884 239.792,251.217 238,239.5C 230.782,230.331 223.448,230.331 216,239.5C 215.5,253.163 215.333,266.829 215.5,280.5C 212.167,280.5 208.833,280.5 205.5,280.5C 205.5,261.833 205.5,243.167 205.5,224.5C 209.434,224.021 213.101,224.688 216.5,226.5C 218.396,225.725 220.063,224.725 221.5,223.5 Z"/></g>
<g><path style="opacity:1" fill="#0e0b1b" d="M 293.5,248.5 C 283.145,248.168 272.812,248.501 262.5,249.5C 262.624,250.107 262.957,250.44 263.5,250.5C 267.554,255.47 272.72,256.804 279,254.5C 282.373,255.621 285.539,257.121 288.5,259C 275.039,269.139 263.539,267.306 254,253.5C 249.581,240.101 253.748,230.268 266.5,224C 280.069,221.531 289.236,226.698 294,239.5C 294.634,242.555 294.468,245.555 293.5,248.5 Z"/></g>
<g><path style="opacity:1" fill="#0c081a" d="M 318.5,222.5 C 320.402,225.337 321.069,228.671 320.5,232.5C 315.9,232.605 312.4,234.605 310,238.5C 308.59,247.084 308.09,255.75 308.5,264.5C 305.5,264.5 302.5,264.5 299.5,264.5C 299.5,251.167 299.5,237.833 299.5,224.5C 303.111,224.044 306.444,224.711 309.5,226.5C 312.285,224.432 315.285,223.098 318.5,222.5 Z"/></g>
<g><path style="opacity:1" fill="#8c8a91" d="M 371.5,224.5 C 367.958,224.187 364.625,224.521 361.5,225.5C 360.957,225.44 360.624,225.107 360.5,224.5C 364.315,223.192 367.981,223.192 371.5,224.5 Z"/></g>
<g><path style="opacity:1" fill="#908f95" d="M 398.5,224.5 C 401.687,223.194 405.02,223.194 408.5,224.5C 408.376,225.107 408.043,225.44 407.5,225.5C 404.713,224.523 401.713,224.19 398.5,224.5 Z"/></g>
<g><path style="opacity:1" fill="#85838a" d="M 411.5,224.5 C 414.625,223.521 417.958,223.187 421.5,223.5C 421.5,224.5 421.5,225.5 421.5,226.5C 420.58,227.067 420.246,226.401 420.5,224.5C 417.5,224.5 414.5,224.5 411.5,224.5 Z"/></g>
<g><path style="opacity:1" fill="#0e0a1b" d="M 411.5,224.5 C 414.5,224.5 417.5,224.5 420.5,224.5C 420.246,226.401 420.58,227.067 421.5,226.5C 429.732,222.021 437.565,222.688 445,228.5C 446.861,230.888 448.194,233.554 449,236.5C 449.5,245.827 449.666,255.161 449.5,264.5C 446.5,264.5 443.5,264.5 440.5,264.5C 440.666,256.16 440.5,247.827 440,239.5C 435.001,230.892 429.001,230.226 422,237.5C 421.5,246.494 421.334,255.494 421.5,264.5C 418.167,264.5 414.833,264.5 411.5,264.5C 411.5,251.167 411.5,237.833 411.5,224.5 Z"/></g>
<g><path style="opacity:1" fill="#0f0c1c" d="M 468.5,223.5 C 476.395,222.229 483.395,224.062 489.5,229C 487.333,231.167 485.167,233.333 483,235.5C 475.397,230.823 469.063,232.156 464,239.5C 462.553,251.386 467.719,256.553 479.5,255C 480.931,254.535 482.097,253.701 483,252.5C 485.167,254.667 487.333,256.833 489.5,259C 478.614,268.031 468.114,267.531 458,257.5C 450.036,242.629 453.536,231.296 468.5,223.5 Z"/></g>
<g><path style="opacity:1" fill="#0e0a1b" d="M 165.5,225.5 C 169.563,234.626 173.897,243.626 178.5,252.5C 183.197,243.106 187.864,233.773 192.5,224.5C 195.713,224.19 198.713,224.523 201.5,225.5C 194.287,241.594 186.787,257.594 179,273.5C 174.093,279.032 167.926,281.366 160.5,280.5C 160.692,277.399 161.358,274.399 162.5,271.5C 167.682,271.416 171.349,269.083 173.5,264.5C 167.108,251.645 161.108,238.645 155.5,225.5C 158.731,224.218 162.064,224.218 165.5,225.5 Z"/></g>
<g><path style="opacity:1" fill="#0d091a" d="M 371.5,224.5 C 375.654,234.145 379.821,243.812 384,253.5C 388.884,243.731 393.718,234.064 398.5,224.5C 401.713,224.19 404.713,224.523 407.5,225.5C 400.287,241.594 392.787,257.594 385,273.5C 380.077,279.38 373.91,281.38 366.5,279.5C 367.482,276.904 368.149,274.238 368.5,271.5C 373.593,271.451 377.26,269.118 379.5,264.5C 373.495,251.476 367.495,238.476 361.5,225.5C 364.625,224.521 367.958,224.187 371.5,224.5 Z"/></g>
<g><path style="opacity:1" fill="#c7c7ca" d="M 117.5,207.5 C 118.492,214.982 118.825,222.648 118.5,230.5C 125.833,230.5 133.167,230.5 140.5,230.5C 140.175,222.648 140.508,214.982 141.5,207.5C 141.5,215.5 141.5,223.5 141.5,231.5C 133.5,231.5 125.5,231.5 117.5,231.5C 117.5,223.833 117.5,216.167 117.5,208.5C 117.5,208.167 117.5,207.833 117.5,207.5 Z"/></g>
<g><path style="opacity:1" fill="#f2f2f3" d="M 270.5,232.5 C 276.284,231.788 280.617,233.955 283.5,239C 276.5,239.667 269.5,239.667 262.5,239C 264.644,236.107 267.311,233.94 270.5,232.5 Z"/></g>
<g><path style="opacity:1" fill="#b9b9bd" d="M 141.5,264.5 C 140.508,257.018 140.175,249.352 140.5,241.5C 133.167,241.5 125.833,241.5 118.5,241.5C 118.825,249.352 118.492,257.018 117.5,264.5C 117.5,256.5 117.5,248.5 117.5,240.5C 125.5,240.5 133.5,240.5 141.5,240.5C 141.5,248.5 141.5,256.5 141.5,264.5 Z"/></g>
<g><path style="opacity:1" fill="#8f8d94" d="M 293.5,248.5 C 283.5,249.167 273.5,249.833 263.5,250.5C 262.957,250.44 262.624,250.107 262.5,249.5C 272.812,248.501 283.145,248.168 293.5,248.5 Z"/></g>
</svg>
