<?xml version="1.0" encoding="UTF-8" standalone="no"?>
<!-- Created with Inkscape (http://www.inkscape.org/) -->

<svg
   version="1.1"
   id="svg10"
   xml:space="preserve"
   width="865.33331"
   height="334.66666"
   viewBox="0 0 865.33331 334.66666"
   xmlns="http://www.w3.org/2000/svg"
   xmlns:svg="http://www.w3.org/2000/svg"
   xmlns:rdf="http://www.w3.org/1999/02/22-rdf-syntax-ns#"
   xmlns:cc="http://creativecommons.org/ns#"
   xmlns:dc="http://purl.org/dc/elements/1.1/"><metadata
     id="metadata16"><rdf:RDF><cc:Work
         rdf:about=""><dc:format>image/svg+xml</dc:format><dc:type
           rdf:resource="http://purl.org/dc/dcmitype/StillImage" /></cc:Work></rdf:RDF></metadata><defs
     id="defs14"><clipPath
       clipPathUnits="userSpaceOnUse"
       id="clipPath28"><path
         d="M 0,251 H 649 V 0 H 0 Z"
         id="path26" /></clipPath><linearGradient
       x1="0"
       y1="0"
       x2="1"
       y2="0"
       gradientUnits="userSpaceOnUse"
       gradientTransform="matrix(203.71533,0,0,-203.71533,22.054199,144.98877)"
       spreadMethod="pad"
       id="linearGradient110"><stop
         style="stop-opacity:1;stop-color:#00703c"
         offset="0"
         id="stop100" /><stop
         style="stop-opacity:1;stop-color:#00703c"
         offset="0.0121155"
         id="stop102" /><stop
         style="stop-opacity:1;stop-color:#00a160"
         offset="0.430298"
         id="stop104" /><stop
         style="stop-opacity:1;stop-color:#00a160"
         offset="0.49743115"
         id="stop106" /><stop
         style="stop-opacity:1;stop-color:#c1d82f"
         offset="1"
         id="stop108" /></linearGradient></defs><g
     id="g18"
     transform="matrix(1.3333333,0,0,-1.3333333,0,334.66667)"><path
       d="m 215.015,104.782 h -8.509 v 62.583 h 8.509 z"
       style="fill:#414142;fill-opacity:1;fill-rule:nonzero;stroke:none"
       id="path20" /><g
       id="g22"><g
         id="g24"
         clip-path="url(#clipPath28)"><g
           id="g30"
           transform="translate(241.4634,160.7017)"><path
             d="m 0,0 v -49.301 h 11.22 c 5.787,0 10.35,1.903 13.689,5.716 3.337,3.81 5.008,8.697 5.008,14.656 v 8.639 c 0,5.903 -1.671,10.76 -5.008,14.571 C 21.57,-1.905 17.007,0 11.22,0 Z M -8.466,-55.92 V 6.663 H 11.22 c 8.168,0 14.736,-2.515 19.708,-7.546 4.969,-5.029 7.459,-11.529 7.459,-19.493 v -8.553 c 0,-7.99 -2.49,-14.494 -7.459,-19.493 -4.972,-5.001 -11.54,-7.498 -19.708,-7.498 z"
             style="fill:#414142;fill-opacity:1;fill-rule:nonzero;stroke:none"
             id="path32" /></g><g
           id="g34"
           transform="translate(329.2495,133.7949)"><path
             d="M 0,0 H -25.705 V -22.395 H 4.384 v -6.618 H -34.173 V 33.569 H 3.91 V 26.907 H -25.705 V 6.663 L 0,6.663 Z"
             style="fill:#414142;fill-opacity:1;fill-rule:nonzero;stroke:none"
             id="path36" /></g><g
           id="g38"
           transform="translate(393.4375,104.7817)"><path
             d="M 0,0 H -8.47 L -38.602,47.795 -38.854,47.71 V 0 h -8.47 v 62.583 h 8.47 L -8.726,14.828 -8.47,14.915 V 62.583 H 0 Z"
             style="fill:#414142;fill-opacity:1;fill-rule:nonzero;stroke:none"
             id="path40" /></g><g
           id="g42"
           transform="translate(453.0645,160.7017)"><path
             d="m 0,0 h -20.629 v -55.92 h -8.47 V 0 h -20.37 V 6.663 H 0 Z"
             style="fill:#414142;fill-opacity:1;fill-rule:nonzero;stroke:none"
             id="path44" /></g><path
           d="m 473.799,104.782 h -8.511 v 62.583 h 8.511 z"
           style="fill:#414142;fill-opacity:1;fill-rule:nonzero;stroke:none"
           id="path46" /><g
           id="g48"
           transform="translate(534.2881,160.7017)"><path
             d="m 0,0 h -20.631 v -55.92 h -8.47 V 0 H -49.473 V 6.663 H 0 Z"
             style="fill:#414142;fill-opacity:1;fill-rule:nonzero;stroke:none"
             id="path50" /></g><g
           id="g52"
           transform="translate(566.7559,135.5571)"><path
             d="m 0,0 16.333,31.807 h 9.67 L 4.038,-8.768 v -22.007 h -8.424 v 22.65 l -21.618,39.932 h 9.67 z"
             style="fill:#414142;fill-opacity:1;fill-rule:nonzero;stroke:none"
             id="path54" /></g><g
           id="g56"
           transform="translate(236.6797,34.4902)"><path
             d="M 0,0 H 0.256 L 20.242,50.85 H 30.773 V -11.733 H 22.308 V 35.159 L 22.047,35.204 3.094,-11.733 h -5.889 l -19.515,48.482 -0.256,-0.043 v -48.439 h -8.468 V 50.85 h 11.133 z"
             style="fill:#414142;fill-opacity:1;fill-rule:nonzero;stroke:none"
             id="path58" /></g><g
           id="g60"
           transform="translate(296.5688,45.9688)"><path
             d="M 0,0 H 18.697 L 9.584,26.861 H 9.326 Z M 21.104,-7.093 H -2.451 l -5.587,-16.119 h -8.639 L 5.887,39.371 h 7.264 l 22.095,-62.583 h -8.64 z"
             style="fill:#414142;fill-opacity:1;fill-rule:nonzero;stroke:none"
             id="path62" /></g><g
           id="g64"
           transform="translate(390.7983,22.7568)"><path
             d="M 0,0 H -8.466 L -38.598,47.796 -38.856,47.71 V 0 h -8.466 v 62.583 h 8.466 l 30.13,-47.754 0.26,0.085 V 62.583 H 0 Z"
             style="fill:#414142;fill-opacity:1;fill-rule:nonzero;stroke:none"
             id="path66" /></g><g
           id="g68"
           transform="translate(419.9102,45.9688)"><path
             d="M 0,0 H 18.697 L 9.586,26.861 H 9.33 Z M 21.104,-7.093 H -2.448 l -5.588,-16.119 h -8.639 L 5.893,39.371 h 7.262 l 22.091,-62.583 h -8.638 z"
             style="fill:#414142;fill-opacity:1;fill-rule:nonzero;stroke:none"
             id="path70" /></g><g
           id="g72"
           transform="translate(511.3516,31.1797)"><path
             d="m 0,0 c -1.491,-2.32 -4.082,-4.453 -7.762,-6.404 -3.682,-1.949 -8.46,-2.922 -14.334,-2.922 -7.221,0 -13.195,2.391 -17.924,7.178 -4.727,4.785 -7.088,10.972 -7.088,18.569 v 12.892 c 0,7.595 2.274,13.782 6.834,18.57 4.553,4.787 10.427,7.18 17.624,7.18 6.96,0 12.461,-1.857 16.499,-5.568 4.045,-3.712 6.005,-8.432 5.891,-14.16 l -0.087,-0.261 h -8.122 c 0,3.815 -1.236,6.988 -3.697,9.519 -2.464,2.535 -5.963,3.806 -10.484,3.806 -4.79,0 -8.642,-1.792 -11.568,-5.372 -2.92,-3.582 -4.384,-8.123 -4.384,-13.627 V 16.421 c 0,-5.562 1.549,-10.136 4.645,-13.734 3.094,-3.596 7.047,-5.392 11.861,-5.392 3.698,0 6.624,0.479 8.79,1.437 2.161,0.962 3.775,2.1 4.837,3.418 V 16.249 H -22.65 v 6.617 H 0 Z"
             style="fill:#414142;fill-opacity:1;fill-rule:nonzero;stroke:none"
             id="path74" /></g><g
           id="g76"
           transform="translate(562.5996,51.7705)"><path
             d="M 0,0 H -25.703 V -22.395 H 4.386 v -6.619 H -34.171 V 33.569 H 3.91 V 26.907 H -25.703 V 6.659 L 0,6.659 Z"
             style="fill:#414142;fill-opacity:1;fill-rule:nonzero;stroke:none"
             id="path78" /></g><g
           id="g80"
           transform="translate(587.9277,78.6777)"><path
             d="m 0,0 v -49.302 h 11.218 c 5.789,0 10.352,1.904 13.693,5.716 3.337,3.809 5.008,8.698 5.008,14.657 v 8.639 c 0,5.902 -1.671,10.76 -5.008,14.57 C 21.57,-1.909 17.007,0 11.218,0 Z M -8.464,-55.921 V 6.662 h 19.682 c 8.17,0 14.738,-2.515 19.708,-7.543 4.972,-5.027 7.459,-11.531 7.459,-19.492 v -8.556 c 0,-7.994 -2.487,-14.495 -7.459,-19.493 -4.97,-5.001 -11.538,-7.499 -19.708,-7.499 z"
             style="fill:#414142;fill-opacity:1;fill-rule:nonzero;stroke:none"
             id="path82" /></g><g
           id="g84"
           transform="translate(22.1978,22)"><path
             d="M 0,0 H 146.802 V 115.241 L 79.434,33.59 79.373,33.334 c -3.654,-3.652 -8.453,-5.681 -13.618,-5.681 -5.163,0 -9.99,1.98 -13.644,5.631 l -0.108,0.057 -52.058,56.474 z"
             style="fill:#133d8d;fill-opacity:1;fill-rule:nonzero;stroke:none"
             id="path86" /></g></g></g><g
       id="g88"><g
         id="g90"><g
           id="g96"><g
             id="g98"><path
               d="M 205.555,229.33 96.381,98.112 c -4.621,-4.625 -12.121,-4.625 -16.743,0 v 0 l -37.37,38.597 c -4.624,4.627 -12.12,4.625 -16.745,0 v 0 c -4.625,-4.621 -4.625,-12.119 0,-16.744 v 0 L 79.638,60.647 c 4.622,-4.623 12.122,-4.623 16.743,0 v 0 l 125.92,151.936 c 4.624,4.624 4.626,12.122 0,16.747 v 0 c -2.312,2.312 -5.341,3.468 -8.371,3.468 v 0 c -3.031,0 -6.062,-1.157 -8.375,-3.468"
               style="fill:url(#linearGradient110);stroke:none"
               id="path112" /></g></g></g></g></g></svg>
