<?xml version="1.0" encoding="UTF-8" standalone="no"?>
<!-- Created with Inkscape (http://www.inkscape.org/) -->

<svg
   version="1.1"
   id="svg10"
   xml:space="preserve"
   width="348"
   height="285.66666"
   viewBox="0 0 348 285.66666"
   sodipodi:docname="IM-Logo-small.svg"
   inkscape:version="1.1.1 (c3084ef, 2021-09-22)"
   xmlns:inkscape="http://www.inkscape.org/namespaces/inkscape"
   xmlns:sodipodi="http://sodipodi.sourceforge.net/DTD/sodipodi-0.dtd"
   xmlns="http://www.w3.org/2000/svg"
   xmlns:svg="http://www.w3.org/2000/svg"
   xmlns:rdf="http://www.w3.org/1999/02/22-rdf-syntax-ns#"
   xmlns:cc="http://creativecommons.org/ns#"
   xmlns:dc="http://purl.org/dc/elements/1.1/"><metadata
     id="metadata16"><rdf:RDF><cc:Work
         rdf:about=""><dc:format>image/svg+xml</dc:format><dc:type
           rdf:resource="http://purl.org/dc/dcmitype/StillImage" /></cc:Work></rdf:RDF></metadata><defs
     id="defs14"><clipPath
       clipPathUnits="userSpaceOnUse"
       id="clipPath28"><path
         d="M 0,251 H 649 V 0 H 0 Z"
         id="path26"
         inkscape:connector-curvature="0" /></clipPath><linearGradient
       x1="0"
       y1="0"
       x2="1"
       y2="0"
       gradientUnits="userSpaceOnUse"
       gradientTransform="matrix(203.71533,0,0,-203.71533,22.054199,144.98877)"
       spreadMethod="pad"
       id="linearGradient110"><stop
         style="stop-opacity:1;stop-color:#00703c"
         offset="0"
         id="stop100" /><stop
         style="stop-opacity:1;stop-color:#00703c"
         offset="0.0121155"
         id="stop102" /><stop
         style="stop-opacity:1;stop-color:#00a160"
         offset="0.430298"
         id="stop104" /><stop
         style="stop-opacity:1;stop-color:#00a160"
         offset="0.49743115"
         id="stop106" /><stop
         style="stop-opacity:1;stop-color:#c1d82f"
         offset="1"
         id="stop108" /></linearGradient></defs><sodipodi:namedview
     pagecolor="#ffffff"
     bordercolor="#666666"
     borderopacity="1"
     objecttolerance="10"
     gridtolerance="10"
     guidetolerance="10"
     inkscape:pageopacity="0"
     inkscape:pageshadow="2"
     inkscape:window-width="3440"
     inkscape:window-height="1387"
     id="namedview12"
     showgrid="false"
     inkscape:zoom="2.7272728"
     inkscape:cx="403.14999"
     inkscape:cy="143.18333"
     inkscape:window-x="0"
     inkscape:window-y="25"
     inkscape:window-maximized="1"
     inkscape:current-layer="g18"
     inkscape:pagecheckerboard="1"
     fit-margin-right="0"
     fit-margin-top="0" /><g
     id="g18"
     inkscape:groupmode="layer"
     inkscape:label="IM-Logo-COLOR-2016"
     transform="matrix(1.3333333,0,0,-1.3333333,0,334.66667)"><path
       d="m 194.665,121.282 h -8.509 v 62.583 h 8.509 z"
       style="fill:#414142;fill-opacity:1;fill-rule:nonzero;stroke:none"
       id="path20"
       inkscape:connector-curvature="0" /><g
       id="g22"
       transform="translate(-20.35,16.5)"><g
         id="g24"
         clip-path="url(#clipPath28)"><g
           id="g30"
           transform="translate(241.4634,160.7017)"><path
             d="m 0,0 v -49.301 h 11.22 c 5.787,0 10.35,1.903 13.689,5.716 3.337,3.81 5.008,8.697 5.008,14.656 v 8.639 c 0,5.903 -1.671,10.76 -5.008,14.571 C 21.57,-1.905 17.007,0 11.22,0 Z M -8.466,-55.92 V 6.663 H 11.22 c 8.168,0 14.736,-2.515 19.708,-7.546 4.969,-5.029 7.459,-11.529 7.459,-19.493 v -8.553 c 0,-7.99 -2.49,-14.494 -7.459,-19.493 -4.972,-5.001 -11.54,-7.498 -19.708,-7.498 z"
             style="fill:#414142;fill-opacity:1;fill-rule:nonzero;stroke:none"
             id="path32"
             inkscape:connector-curvature="0" /></g><g
           id="g56"
           transform="translate(236.6797,34.4902)"><path
             d="M 0,0 H 0.256 L 20.242,50.85 H 30.773 V -11.733 H 22.308 V 35.159 L 22.047,35.204 3.094,-11.733 h -5.889 l -19.515,48.482 -0.256,-0.043 v -48.439 h -8.468 V 50.85 h 11.133 z"
             style="fill:#414142;fill-opacity:1;fill-rule:nonzero;stroke:none"
             id="path58"
             inkscape:connector-curvature="0" /></g><g
           id="g80"
           transform="translate(587.9277,78.6777)" /><g
           id="g84"
           transform="translate(22.1978,22)"><path
             d="M 0,0 H 146.802 V 115.241 L 79.434,33.59 79.373,33.334 c -3.654,-3.652 -8.453,-5.681 -13.618,-5.681 -5.163,0 -9.99,1.98 -13.644,5.631 l -0.108,0.057 -52.058,56.474 z"
             style="fill:#133d8d;fill-opacity:1;fill-rule:nonzero;stroke:none"
             id="path86"
             inkscape:connector-curvature="0" /></g></g></g><g
       id="g88"
       transform="translate(-20.35,16.5)"><g
         id="g90"><g
           id="g96"><g
             id="g98"><path
               d="M 205.555,229.33 96.381,98.112 c -4.621,-4.625 -12.121,-4.625 -16.743,0 v 0 l -37.37,38.597 c -4.624,4.627 -12.12,4.625 -16.745,0 v 0 c -4.625,-4.621 -4.625,-12.119 0,-16.744 v 0 L 79.638,60.647 c 4.622,-4.623 12.122,-4.623 16.743,0 v 0 l 125.92,151.936 c 4.624,4.624 4.626,12.122 0,16.747 v 0 c -2.312,2.312 -5.341,3.468 -8.371,3.468 v 0 c -3.031,0 -6.062,-1.157 -8.375,-3.468"
               style="fill:url(#linearGradient110);stroke:none"
               id="path112"
               inkscape:connector-curvature="0" /></g></g></g></g></g></svg>
